<svg width="current" height="current" viewBox="0 0 22 22" fill="none"
    xmlns="http://www.w3.org/2000/svg">
    <path fill-rule="evenodd" clip-rule="evenodd" d="M3.58301 17.6667C3.58301 17.2525 3.91879 16.9167 4.33301 16.9167H17.6663C18.0806 16.9167 18.4163 17.2525 18.4163 17.6667C18.4163 18.0809 18.0806 18.4167 17.6663 18.4167H4.33301C3.91879 18.4167 3.58301 18.0809 3.58301 17.6667Z" fill="current"/>
    <path fill-rule="evenodd" clip-rule="evenodd" d="M11.0002 3.58331C11.4144 3.58331 11.7502 3.9191 11.7502 4.33331V11.4115L14.3588 8.80298C14.6517 8.51009 15.1265 8.51009 15.4194 8.80298C15.7123 9.09588 15.7123 9.57075 15.4194 9.86364L11.5305 13.7525C11.2377 14.0454 10.7628 14.0454 10.4699 13.7525L6.581 9.86364C6.2881 9.57075 6.2881 9.09588 6.581 8.80298C6.87389 8.51009 7.34876 8.51009 7.64166 8.80298L10.2502 11.4115V4.33331C10.2502 3.9191 10.586 3.58331 11.0002 3.58331Z" fill="current"/>
    <path fill-rule="evenodd" clip-rule="evenodd" d="M1.75 1.75V20.25H20.25V1.75H1.75ZM0.25 1.66667C0.25 0.884264 0.884264 0.25 1.66667 0.25H20.3333C21.1158 0.25 21.75 0.884288 21.75 1.66667V20.3333C21.75 21.1158 21.1158 21.75 20.3333 21.75H1.66667C0.884288 21.75 0.25 21.1158 0.25 20.3333V1.66667Z" fill="current"/>
</svg>
