<svg width="current" height="current" viewBox="0 0 20 20" fill="none"
    xmlns="http://www.w3.org/2000/svg">
    <path d="M7.34126 12.4333L12.4329 3.23581C12.5029 3.10914 12.5729 2.98414 12.6363 2.85331C12.6938 2.73498 12.7421 2.61581 12.7738 2.48664C12.8404 2.21498 12.8221 1.93164 12.7188 1.67248C12.6178 1.4175 12.4364 1.20244 12.2021 1.05998C11.9718 0.920316 11.7007 0.863568 11.4338 0.899144C11.1671 0.934977 10.9229 1.06081 10.7304 1.25748C10.6388 1.34914 10.5638 1.45331 10.4946 1.56414C10.4179 1.68581 10.3488 1.81248 10.2788 1.93914L9.95709 2.51998L9.63459 1.93831C9.56459 1.81248 9.49542 1.68581 9.41876 1.56414C9.3514 1.45349 9.27233 1.35039 9.18292 1.25664C8.99512 1.06209 8.74745 0.936196 8.47959 0.899144C8.21291 0.86383 7.94216 0.920567 7.71209 1.05998C7.47781 1.20248 7.29641 1.41753 7.19542 1.67248C7.09167 1.93127 7.07242 2.21625 7.14042 2.48664C7.17209 2.61581 7.22043 2.73498 7.27709 2.85331C7.34043 2.98414 7.41042 3.10914 7.48042 3.23581L8.52042 5.11414L4.46876 12.4325H1.69126C1.55209 12.4325 1.41209 12.4325 1.27292 12.4408C1.14626 12.4483 1.02292 12.4641 0.899591 12.5C0.641258 12.575 0.414591 12.7333 0.251258 12.9566C0.0880907 13.1814 0.000149855 13.4521 1.91347e-07 13.7298C-0.000149472 14.0076 0.0874997 14.2783 0.250424 14.5033C0.414591 14.7266 0.640424 14.8841 0.899591 14.96C1.02292 14.9958 1.14626 15.0116 1.27292 15.0191C1.41209 15.0275 1.55209 15.0275 1.69209 15.0275H12.6063C12.6396 14.9547 12.6675 14.8794 12.6896 14.8025C13.0354 13.6225 12.1763 12.4325 10.9938 12.4325L7.34126 12.4333ZM2.59459 15.4516L1.93459 16.7016C1.86626 16.8316 1.79709 16.96 1.73542 17.0941C1.67831 17.2148 1.63363 17.3411 1.60209 17.4708C1.53522 17.7484 1.55381 18.0398 1.65542 18.3066C1.75626 18.5716 1.93376 18.7925 2.16126 18.9358C2.38792 19.0791 2.65209 19.1375 2.91209 19.1C3.17376 19.0633 3.41209 18.935 3.60042 18.7333C3.69042 18.6375 3.76376 18.5316 3.83209 18.4183C3.90709 18.2933 3.97459 18.1633 4.04292 18.0333L5.00042 16.22C4.92542 16.095 4.21126 14.995 2.59459 15.4516ZM19.7496 12.9466C19.5888 12.7291 19.3606 12.5709 19.1004 12.4966C18.9786 12.463 18.8534 12.4432 18.7271 12.4375C18.5871 12.4291 18.4479 12.4291 18.3079 12.4291H15.5404L11.8821 5.91664C11.4021 6.42057 11.089 7.06013 10.9854 7.74831C10.8515 8.6091 11.0118 9.48992 11.4404 10.2483L15.8354 18.0758C15.9054 18.2008 15.9746 18.3258 16.0513 18.4458C16.1213 18.5541 16.1963 18.6566 16.2871 18.7491C16.4796 18.9425 16.7238 19.0658 16.9913 19.1016C17.2579 19.1366 17.5271 19.0816 17.7596 18.9433C17.9934 18.8034 18.1751 18.591 18.2771 18.3383C18.3813 18.0825 18.3988 17.8033 18.3321 17.535C18.2993 17.4099 18.2532 17.2886 18.1946 17.1733C18.1321 17.0441 18.0613 16.9208 17.9913 16.7958L16.9779 14.9908H18.3079C18.4479 14.9908 18.5871 14.9908 18.7271 14.9833C18.8538 14.9758 18.9771 14.96 19.1004 14.925C19.361 14.8507 19.5896 14.6922 19.7504 14.4741C19.9133 14.253 20.001 13.9855 20.0004 13.7108C20.001 13.4362 19.9133 13.1686 19.7504 12.9475L19.7496 12.9466Z" fill="current"/>
</svg>
