<svg width="current" height="current" viewBox="0 0 20 20" fill="none"
    xmlns="http://www.w3.org/2000/svg">
    <path d="M12.4617 9.66836L14.9258 7.2042L6.96667 2.73086C6.43917 2.44586 5.945 2.40586 5.51167 2.71753L12.4617 9.66836ZM15.3458 12.5534L17.9075 11.1125C18.4075 10.8325 18.6817 10.4359 18.6817 9.99586C18.6817 9.5567 18.4075 9.1592 17.9083 8.8792L15.5892 7.5767L12.9783 10.1867L15.3458 12.5534ZM5.08333 3.32336C5.03 3.48753 5 3.67086 5 3.8717V16.1259C5 16.4434 5.07 16.7167 5.19667 16.9342L11.9442 10.1859L5.08333 3.32336ZM12.4617 10.7025L5.75167 17.4134C5.88 17.4625 6.01833 17.4884 6.16417 17.4884C6.42417 17.4884 6.695 17.4117 6.97083 17.2584L14.6833 12.9275L12.4617 10.7025Z" fill="current"/>
</svg>
