<svg width="current" height="current" viewBox="0 0 20 20" fill="none"
    xmlns="http://www.w3.org/2000/svg">
    <path fill-rule="evenodd" clip-rule="evenodd" d="M11.917 15.9829C11.917 14.1251 13.4746 12.6688 15.3336 12.6688C17.1927 12.6688 18.7503 14.1251 18.7503 15.9829C18.7503 17.8407 17.1927 19.297 15.3336 19.297C13.4746 19.297 11.917 17.8407 11.917 15.9829ZM15.3336 14.1688C14.2471 14.1688 13.417 15.0084 13.417 15.9829C13.417 16.9574 14.2471 17.797 15.3336 17.797C16.4202 17.797 17.2503 16.9574 17.2503 15.9829C17.2503 15.0084 16.4202 14.1688 15.3336 14.1688Z" fill="current"/>
    <path fill-rule="evenodd" clip-rule="evenodd" d="M11.917 4.01715C11.917 2.15939 13.4746 0.703064 15.3336 0.703064C17.1927 0.703064 18.7503 2.15939 18.7503 4.01715C18.7503 5.87492 17.1927 7.33124 15.3336 7.33124C13.4746 7.33124 11.917 5.87492 11.917 4.01715ZM15.3336 2.20306C14.2471 2.20306 13.417 3.04271 13.417 4.01715C13.417 4.9916 14.2471 5.83124 15.3336 5.83124C16.4202 5.83124 17.2503 4.9916 17.2503 4.01715C17.2503 3.04271 16.4202 2.20306 15.3336 2.20306Z" fill="current"/>
    <path fill-rule="evenodd" clip-rule="evenodd" d="M1.25 10.0001C1.25 8.14224 2.8077 6.68597 4.66665 6.68597C6.52561 6.68597 8.08331 8.14224 8.08331 10.0001C8.08331 11.8579 6.52561 13.3142 4.66665 13.3142C2.8077 13.3142 1.25 11.8579 1.25 10.0001ZM4.66665 8.18597C3.58011 8.18597 2.75 9.02559 2.75 10.0001C2.75 10.9745 3.58011 11.8142 4.66665 11.8142C5.75319 11.8142 6.58331 10.9745 6.58331 10.0001C6.58331 9.02559 5.75319 8.18597 4.66665 8.18597Z" fill="current"/>
    <path fill-rule="evenodd" clip-rule="evenodd" d="M6.52734 8.06069L12.7495 4.64191L13.4719 5.95654L7.24967 9.37532L6.52734 8.06069Z" fill="current"/>
    <path fill-rule="evenodd" clip-rule="evenodd" d="M12.7495 15.3582L6.52734 11.9394L7.24967 10.6248L13.4719 14.0436L12.7495 15.3582Z" fill="current"/>
</svg>
